<svg id="Ebene_1" data-name="Ebene 1" xmlns="http://www.w3.org/2000/svg" xmlns:xlink="http://www.w3.org/1999/xlink" viewBox="0 0 183.44 183.44"><defs><style>.cls-1,.cls-4{fill:#fff;}.cls-2{mask:url(#mask);}.cls-3,.cls-5{fill:#010000;}.cls-3,.cls-4{fill-rule:evenodd;}</style><mask id="mask" x="0" y="0" width="183.44" height="183.44" maskUnits="userSpaceOnUse"><g transform="translate(-251.27 -46.28)"><g id="a"><path class="cls-1" d="M251.29,46.28H434.71V229.72H251.29"/></g></g></mask></defs><g class="cls-2"><path class="cls-3" d="M434.71,138A91.72,91.72,0,1,0,343,229.72,91.7,91.7,0,0,0,434.71,138Z" transform="translate(-251.27 -46.28)"/></g><path class="cls-4" d="M330.86,124.85a5.64,5.64,0,0,1-4,3.48c-1.65.2-2.39-1-1.72-2.77a5.66,5.66,0,0,1,4-3.43C330.73,121.93,331.52,123.17,330.86,124.85Zm-29.47,23.38c-2.11,4-5.8,1.28-3.76-2.56l11.92-23.22.27-.55a3.57,3.57,0,0,1,2.8-1.94l3.49-.44L309.68,132a9.21,9.21,0,0,1,3.33-1.12c3.35-.64,5.68,1.51,2.67,7.36L314,141.47c-.18.38-.91,1.94-.35,2.58.42.44,1.11.53,2.21-.18l1.8-1.18a10.66,10.66,0,0,1,.87-2.18l2.92-5.83c.42-.85.28-1.1.28-1.1a.73.73,0,0,0-.69-.4c-1.73-.11-3.06-2.51,1.13-3l.21,0h.06l2.06-.25c1.86-.23,4.2.85,1.62,5.75l-2.29,4.33c-.18.38-.88,1.71-.52,2.6.51,1.09,2,.34,2.39.06l1.43-.93a11.82,11.82,0,0,1,1-2.62l10.62-20.69a3.49,3.49,0,0,1,2.79-2L345,116l-11.36,22.17c-1.06,2.09-1.27,2.65-.84,3.35s1.4.63,2.11.18l2.19-1.44,0-.12c.5-3.75,2.84-7.47,6.73-10.79,2.06-1.73,5.42-3.39,7.9-3a2.86,2.86,0,0,1,2.19,1.55h0l0,0a3.61,3.61,0,0,1,2.78-2h.05l3.56-.44-1.52,2.93s0,.09-.07.14l-4,7.67c-.4.76-1,2.07-.3,2.88.45.52,1.55.12,2-.21l2.94-1.88a1.87,1.87,0,0,1,.15-.32l3.12-6a2.69,2.69,0,0,0,.41-2.05.76.76,0,0,0-.58-.51c-1.65-.24-2.72-2.55,1.35-3.05l1.05-.13a3.32,3.32,0,0,1,.89,0,2.38,2.38,0,0,1,2.17,1.4,22,22,0,0,1,2-1.46,11.32,11.32,0,0,1,5.32-1.59c2.4,0,4.24,1.52,1.9,6.21l-2.37,4.69a3.27,3.27,0,0,0-.5,2.11c.21.69,1.26,1,2.6.08l1-.68a7.12,7.12,0,0,1,.05-1c.52-3.79,2.6-7,6.5-10.32,2.11-1.77,5.47-3.43,8-3a3,3,0,0,1,2.27,1.53l0,0a3.63,3.63,0,0,1,2.89-2l3.44-.43-1.53,3,0,.06-.08.16-5.33,10.38a1.49,1.49,0,0,0,1.11.79,4.76,4.76,0,0,0,2.27-1l1.59-1a9.06,9.06,0,0,1,.68-3.63c1.92-5.17,7.53-9.87,12.36-10.47,3.63-.45,6.75,1.61,5.89,5.76-1,4.52-6,11.85-13.05,12.73-2.25.28-4-.35-5-1.73l-2.5,1.6a8.88,8.88,0,0,1-3.38,1.44,4.53,4.53,0,0,1-2.09-.32l-4.95,9.51c-1.28,2.57-4.91,6.08-8.38,4.33-1.55-.79-1.81-3.38-.91-5.22,2.16-4.36,7.25-6.24,8.57-7l1.07-2.09c-2.58,1.7-4,2.27-6.2,2.37a2.72,2.72,0,0,1-2.67-1.59l-1,.67c-1.53,1-2.65,1.84-4.81,2-1.15.1-3.06-.67-3.51-1.79-.3-.77-.89-2.11.57-4.87l1.87-3.52a6.25,6.25,0,0,0,.93-2.38,1.1,1.1,0,0,0-1.14-1.24,4.94,4.94,0,0,0-3,1.85l-5.52,10.65-.48.94c-1.2,2.5-4.78,2.58-4.89.6l-.61.39c-1.76,1.11-2.53,1.65-4.39,1.88a3.48,3.48,0,0,1-3.7-2.3,13.64,13.64,0,0,1-8.33,3.62,3,3,0,0,1-3-1.8l-2.36,1.52a8.89,8.89,0,0,1-4.36,1.61c-.82.1-2.73.13-3.53-1.5l-1.68,1.08a9.33,9.33,0,0,1-5,1.65,3.43,3.43,0,0,1-2.79-1.69l-2.13,1.36a8.06,8.06,0,0,1-4,1.48c-1.22,0-2.81-.54-3.32-1.9-.1-.26-1.06-2.14.42-5l2.37-4.7a2,2,0,0,0,.29-1.77c-.28-.54-1.37-1.16-3.94,1.07l-6.14,11.95Zm51-17.39c-.3-1.92-2.25-1.36-2.94-1.15-1.51.55-3.65,2.5-5.17,4.78s-2.53,5.16-1.61,6.07a1.2,1.2,0,0,0,1.19.25,9.18,9.18,0,0,0,4.95-3.06l3.58-6.89Zm53.76-4.77c-2.28,3.2-3,6.58-1.55,7.55s4.44-.83,6.72-4,3-6.57,1.55-7.54S408.44,122.88,406.15,126.07Zm-13.1.21a2,2,0,0,0-2.79-1.61c-1.55.51-3.69,2.51-5.22,4.78s-2.58,5.21-1.66,6.17a1.45,1.45,0,0,0,1.23.24,9.76,9.76,0,0,0,5.17-3.13l3.27-6.45Zm-8.34,17.22c0,.05-1.82,1.2-2.25,1.52a10.27,10.27,0,0,0-2.31,2.28c-.4.72-.61,1.83,0,2.16,1.05.62,2-1.4,2-1.4l2.58-4.56ZM277.63,159.63c-6.31.6-10.1-3.91-10.38-9.31-.5-9.43,10.31-26.37,27.71-28.53,6.48-.81,8.05,2.28,8.39,4.1,1.08,5.64-4.45,10-7.11,11.68h0l-.34.21c-.84.5-1.55-.18-1.07-.92l.15-.19c1.21-1.57,2.93-4.28,2.28-6.37-.54-1.93-2.43-2.84-5.19-2.49-7.18.89-14.07,8.4-16.05,11.56-3.41,5.45-4.77,11.05-2.49,14,2,2.55,5.19,2.27,7.37,1.85A29.69,29.69,0,0,0,293,149.28l.15-.11c1.54-1.17,2.79.85,1.42,2.14l0,.06c-3,2.74-9,7.52-16.85,8.26Z" transform="translate(-251.27 -46.28)"/><rect class="cls-5" x="15.96" y="55.72" width="151.01" height="65"/><path class="cls-1" d="M388.55,127c-2.27-4.77,2.14-17.79-7.88-38.84a13.68,13.68,0,0,1-1.39-5.55c-.15-3.29-5.74-6.84-13.17-2.17s-1,5-.16,10.44-.39,8.42-5.14,9.21a42.73,42.73,0,0,0-29.29,11.54s-15.58-5.45-24.92-4.35,14.33,8.78,11.15,13.71-8.86,11.24-9.7,23.71a17.83,17.83,0,0,1-5.49,6.78c-3.86,2.82-4.8,6.22-1,4.46s7.84-1.69,9,1,3.23,4.85,2.95,6.24-1.58,6.67.71,9.2,1.42-2.28,2-3.06c0,0,6.3,2.39,8.28,7s-.19,12.68,6.81,18.75-2.64-5.16.8-9.58,15.73-2.95,21.27-1.07,2.7,4.95,8.91.85-.78-3.13-7.57-4.78-15.58-5.07-21.91-5.8-8.08-11.05-7.91-13.28,4.73,1,3.19-2-5.39-2.24-5.56-7,1.26-11.93,5.53-13.72c0,0,5.84,8.31,7,15.2s5.77,5.22,6.84-5.35-1.1-16.34,2-19.27,9.67-1.45,23.21-6.85c0,0,4.43-1.54,6.84,4.25s.74,9.12,6.58,8.14S390.82,131.78,388.55,127Zm-15.16-14.76a6.64,6.64,0,0,1-.47,1.32,6.79,6.79,0,0,1-.64,1.13,7.23,7.23,0,0,1-.73,1,7.59,7.59,0,0,1-.77.82,14.18,14.18,0,0,1-1.53,1.29,14.66,14.66,0,0,1-1.41.9,9.71,9.71,0,0,1-1.14.59c-.64.3-1,.44-1,.44s.22-.36.63-.93l.72-1c.27-.39.6-.81.91-1.29s.67-1,1-1.5c.08-.13.17-.26.25-.4s.15-.28.22-.42a6.77,6.77,0,0,0,.43-.85,5.64,5.64,0,0,0,.33-.86,5.2,5.2,0,0,0,.22-.84,3.59,3.59,0,0,0-.08-1.54,4.23,4.23,0,0,0-.77-1.42,9.12,9.12,0,0,0-1.33-1.3,23.4,23.4,0,0,0-3.11-2c-1-.58-1.85-1-2.46-1.37l-1-.53a7.77,7.77,0,0,1,1.11-.08,13.74,13.74,0,0,1,2.94.25,15,15,0,0,1,1.94.5,11.7,11.7,0,0,1,2.11.94,8.46,8.46,0,0,1,2.08,1.6,6.64,6.64,0,0,1,1.52,2.58A6.11,6.11,0,0,1,373.39,112.26Z" transform="translate(-251.27 -46.28)"/></svg>