<svg id="Ebene_1" data-name="Ebene 1" xmlns="http://www.w3.org/2000/svg" viewBox="0 0 151.01 108.21"><defs><style>.cls-1{fill:#fff;fill-rule:evenodd;}</style></defs><path class="cls-1" d="M330.86,124.85a5.64,5.64,0,0,1-4,3.48c-1.65.2-2.39-1-1.72-2.77a5.66,5.66,0,0,1,4-3.43C330.73,121.93,331.52,123.17,330.86,124.85Zm-29.47,23.38c-2.11,4-5.8,1.28-3.76-2.56l11.92-23.22.27-.55a3.57,3.57,0,0,1,2.8-1.94l3.49-.44L309.68,132a9.21,9.21,0,0,1,3.33-1.12c3.35-.64,5.68,1.51,2.67,7.36L314,141.47c-.18.38-.91,1.94-.35,2.58.42.44,1.11.53,2.21-.18l1.8-1.18a10.66,10.66,0,0,1,.87-2.18l2.92-5.83c.42-.85.28-1.1.28-1.1a.73.73,0,0,0-.69-.4c-1.73-.11-3.06-2.51,1.13-3l.21,0h.06l2.06-.25c1.86-.23,4.2.85,1.62,5.75l-2.29,4.33c-.18.38-.88,1.71-.52,2.6.51,1.09,2,.34,2.39.06l1.43-.93a11.82,11.82,0,0,1,1-2.62l10.62-20.69a3.49,3.49,0,0,1,2.79-2L345,116l-11.36,22.17c-1.06,2.09-1.27,2.65-.84,3.35s1.4.63,2.11.18l2.19-1.44,0-.12c.5-3.75,2.84-7.47,6.73-10.79,2.06-1.73,5.42-3.39,7.9-3a2.86,2.86,0,0,1,2.19,1.55h0l0,0a3.61,3.61,0,0,1,2.78-2h.05l3.56-.44-1.52,2.93s0,.09-.07.14l-4,7.67c-.4.76-1,2.07-.3,2.88.45.52,1.55.12,2-.21l2.94-1.88a1.87,1.87,0,0,1,.15-.32l3.12-6a2.69,2.69,0,0,0,.41-2.05.76.76,0,0,0-.58-.51c-1.65-.24-2.72-2.55,1.35-3.05l1.05-.13a3.32,3.32,0,0,1,.89,0,2.38,2.38,0,0,1,2.17,1.4,22,22,0,0,1,2-1.46,11.32,11.32,0,0,1,5.32-1.59c2.4,0,4.24,1.52,1.9,6.21l-2.37,4.69a3.27,3.27,0,0,0-.5,2.11c.21.69,1.26,1,2.6.08l1-.68a7.12,7.12,0,0,1,.05-1c.52-3.79,2.6-7,6.5-10.32,2.11-1.77,5.47-3.43,8-3a3,3,0,0,1,2.27,1.53l0,0a3.63,3.63,0,0,1,2.89-2l3.44-.43-1.53,3,0,.06-.08.16-5.33,10.38a1.49,1.49,0,0,0,1.11.79,4.76,4.76,0,0,0,2.27-1l1.59-1a9.06,9.06,0,0,1,.68-3.63c1.92-5.17,7.53-9.87,12.36-10.47,3.63-.45,6.75,1.61,5.89,5.76-1,4.52-6,11.85-13.05,12.73-2.25.28-4-.35-5-1.73l-2.5,1.6a8.88,8.88,0,0,1-3.38,1.44,4.53,4.53,0,0,1-2.09-.32l-4.95,9.51c-1.28,2.57-4.91,6.08-8.38,4.33-1.55-.79-1.81-3.38-.91-5.22,2.16-4.36,7.25-6.24,8.57-7l1.07-2.09c-2.58,1.7-4,2.27-6.2,2.37a2.72,2.72,0,0,1-2.67-1.59l-1,.67c-1.53,1-2.65,1.84-4.81,2-1.15.1-3.06-.67-3.51-1.79-.3-.77-.89-2.11.57-4.87l1.87-3.52a6.25,6.25,0,0,0,.93-2.38,1.1,1.1,0,0,0-1.14-1.24,4.94,4.94,0,0,0-3,1.85l-5.52,10.65-.48.94c-1.2,2.5-4.78,2.58-4.89.6l-.61.39c-1.76,1.11-2.53,1.65-4.39,1.88a3.48,3.48,0,0,1-3.7-2.3,13.64,13.64,0,0,1-8.33,3.62,3,3,0,0,1-3-1.8l-2.36,1.52a8.89,8.89,0,0,1-4.36,1.61c-.82.1-2.73.13-3.53-1.5l-1.68,1.08a9.33,9.33,0,0,1-5,1.65,3.43,3.43,0,0,1-2.79-1.69l-2.13,1.36a8.06,8.06,0,0,1-4,1.48c-1.22,0-2.81-.54-3.32-1.9-.1-.26-1.06-2.14.42-5l2.37-4.7a2,2,0,0,0,.29-1.77c-.28-.54-1.37-1.16-3.94,1.07l-6.14,11.95Zm51-17.39c-.3-1.92-2.25-1.36-2.94-1.15-1.51.55-3.65,2.5-5.17,4.78s-2.53,5.16-1.61,6.07a1.2,1.2,0,0,0,1.19.25,9.18,9.18,0,0,0,4.95-3.06l3.58-6.89Zm53.76-4.77c-2.28,3.2-3,6.58-1.55,7.55s4.44-.83,6.72-4,3-6.57,1.55-7.54S408.44,122.88,406.15,126.07Zm-13.1.21a2,2,0,0,0-2.79-1.61c-1.55.51-3.69,2.51-5.22,4.78s-2.58,5.21-1.66,6.17a1.45,1.45,0,0,0,1.23.24,9.76,9.76,0,0,0,5.17-3.13l3.27-6.45Zm-8.34,17.22c0,.05-1.82,1.2-2.25,1.52a10.27,10.27,0,0,0-2.31,2.28c-.4.72-.61,1.83,0,2.16,1.05.62,2-1.4,2-1.4l2.58-4.56ZM277.63,159.63c-6.31.6-10.1-3.91-10.38-9.31-.5-9.43,10.31-26.37,27.71-28.53,6.48-.81,8.05,2.28,8.39,4.1,1.08,5.64-4.45,10-7.11,11.68h0l-.34.21c-.84.5-1.55-.18-1.07-.92l.15-.19c1.21-1.57,2.93-4.28,2.28-6.37-.54-1.93-2.43-2.84-5.19-2.49-7.18.89-14.07,8.4-16.05,11.56-3.41,5.45-4.77,11.05-2.49,14,2,2.55,5.19,2.27,7.37,1.85A29.69,29.69,0,0,0,293,149.28l.15-.11c1.54-1.17,2.79.85,1.42,2.14l0,.06c-3,2.74-9,7.52-16.85,8.26Z" transform="translate(-267.23 -83.73)"/><path d="M283,83.84c-.16.26-.23,12.86-.25,36.7v23.55l1-.08c.52,0,2-.24,3.21-.45s2.65-.44,3.15-.51l2.52-.37,1.62-.26.06-11.38c0-6.26.09-11.4.11-11.43s1.06-.1,2.29-.17c3.51-.2,5.13-.54,6.94-1.47,4.24-2.17,6.1-6.19,6.3-13.6a25,25,0,0,0-1-8.78,21.72,21.72,0,0,0-1.76-4,16.75,16.75,0,0,0-3.54-3.55c-2.16-1.42-3-1.63-10.87-2.84-2.64-.4-5.85-.91-7.13-1.12C282.94,83.65,283.11,83.66,283,83.84Zm12.73,12.87c1.64.16,2.3.56,2.79,1.67.39.9.51,1.93.5,4.42a13.71,13.71,0,0,1-.56,4.88c-.38.75-1.11.94-3.26.9h-.81v-6c0-3.45,0-6,.1-6Z" transform="translate(-267.23 -83.73)"/><path d="M313.15,88.65c0,.14-.08.86-.11,1.59-.07,1.33-.1,49.13,0,49.18s1.26-.15,2.77-.4,4-.65,5.51-.88,2.8-.46,2.82-.48.08-10.74.13-23.81c.07-20.43.05-23.76-.08-23.76-.43,0-9.37-1.39-10.59-1.63C313.25,88.39,313.2,88.42,313.15,88.65Z" transform="translate(-267.23 -83.73)"/><path d="M327.42,94.83c0,2.32,0,4.33.1,4.48s.29.33,4.25.76c2.6.27,3.89.48,4.11.67s.16.25.11.48-.82,2.67-1.74,5.5c-1.69,5.23-2.71,8.42-2.76,8.62s-.14.52-.31,1c-.32,1-2.09,6.86-3.11,10.35-.82,2.79-.9,3.44-.85,7.51,0,2.89,0,3,.25,2.95.38,0,5.65-.83,11.2-1.73,1.92-.31,4.54-.71,5.82-.9l2.78-.4a.79.79,0,0,0,.54-.28,39,39,0,0,0,.18-4l.06-3.75-.6.07-2,.17c-.77.07-2.2.22-3.18.35a9,9,0,0,1-3.19.11c-.13-.09-.12-.21,0-.86.47-1.86,2.89-9.23,5.57-17,1.06-3,2.13-6.15,2.41-6.94a15.13,15.13,0,0,0,.71-5.6c0-1.84-.12-2.34-.55-2.57-.17-.09-2.48-.49-5.12-.9l-9.34-1.46-5-.79-.42-.07Z" transform="translate(-267.23 -83.73)"/><path d="M349.59,94.14s0,1.76,0,3.88l0,3.84.39.1c.22.06,1.32.18,2.47.28a44.35,44.35,0,0,1,5.07.63c.28.08.41.16.41.31a34.46,34.46,0,0,1-1.73,4.88c-2.41,6.27-4.62,12.32-6.36,17.47l-.57,1.68,0,3.21,0,3.23h.58c.32,0,1.62-.18,2.9-.4s3.47-.57,4.88-.77c3.72-.55,11.1-1.72,11.81-1.89l.62-.13,0-3.35,0-3.34-.53.07c-.92.12-6.08.61-7.21.69-.91.07-1.09,0-1.14-.1s.75-2.65,2.41-6.85c2.23-5.61,4.19-10.28,5.22-12.43l.91-1.9v-3a26.3,26.3,0,0,0-.08-3l-2.89-.45c-1.53-.25-5.24-.83-8.23-1.29-6.6-1-8.26-1.27-8.59-1.35A.76.76,0,0,0,349.59,94.14Z" transform="translate(-267.23 -83.73)"/><path d="M378.32,99.3c-.93,3.33-5.06,19.9-6.52,26.12-.14.61-.46,2-.7,3a19.22,19.22,0,0,0-.41,1.95,4.71,4.71,0,0,0,.87-.09c2-.34,6.36-1,8.15-1.3,1.06-.16,2-.3,2-.32s.27-1.06.54-2.3c.54-2.46.79-3.16,1.19-3.38a14.72,14.72,0,0,1,3.68-.15c0,.06.25,1.06.55,2.23a7.27,7.27,0,0,0,.77,2.3c.24.2-.28.27,6.29-.73,2.71-.42,3.85-.65,4.1-.85s0-.48-.42-1.76c-1-2.9-3.43-10.79-4.81-15.53-.75-2.53-1.47-5-1.61-5.43a11.72,11.72,0,0,1-.39-1.55,1.55,1.55,0,0,0-.33-.8c-.1,0-1.85-.36-3.87-.67s-4.77-.75-6.08-1-2.49-.38-2.61-.38S378.44,98.86,378.32,99.3Zm6.87,14.92c.06.16.2.87.33,1.59.17,1,.2,1.34.11,1.46a1.41,1.41,0,0,1-.81.14h-.67l.08-.82C384.43,114.5,384.88,113.39,385.19,114.22Z" transform="translate(-267.23 -83.73)"/><path d="M415.59,128.91c-1.14.16-7.11,1.08-7.9,1.22l-1,.18-.07,8.24c-.08,8.3-.13,9.88-.32,9.88s-.37-.6-1.5-4.34c-.59-2-1.57-5.17-2.17-7.14s-1.24-4-1.4-4.57c-.23-.76-.36-1-.56-1.11s-1.11,0-3.94.42l-4,.58-.31.06v28.14c0,21.85,0,28.15.14,28.15s2,.27,4.4.61,4.52.64,4.84.67l.59.08v-5.75c0-7.39.13-13.38.29-13.53s.19,0,.31.53c0,.12.3,1.16.62,2.33s1.24,4.77,2.07,8c1.63,6.39,2.18,8.41,2.42,8.9a.79.79,0,0,0,.49.41c.43.12,5.53.86,6.73,1l.91.09.07-1.51c.09-2,.09-56.39,0-59.34-.05-2-.09-2.26-.24-2.25Z" transform="translate(-267.23 -83.73)"/><path d="M376.38,133.88a15.55,15.55,0,0,0-10.15,4.74,11.21,11.21,0,0,0-2,3.13c-1.39,2.94-1.65,4.4-1.85,10.48-.15,4.26-.07,17.46.12,19.77a18.73,18.73,0,0,0,1.66,7,12.22,12.22,0,0,0,2.45,3.57,11.89,11.89,0,0,0,3.7,2.72,13.88,13.88,0,0,0,4.08,1.38A13.37,13.37,0,0,0,378,187a8.47,8.47,0,0,0,4.87-1,6.29,6.29,0,0,0,2.19-1.59,7.46,7.46,0,0,0,1.53-2,22.86,22.86,0,0,0,2-6.55c.22-1.57.22-29.1,0-30.78a17.94,17.94,0,0,0-2.92-8C383.6,134.56,380.49,133.48,376.38,133.88Zm0,10.75a3,3,0,0,1,.33.78c.16.71.25,25.15.1,28s-.31,3.22-1,3.23a1.37,1.37,0,0,1-1.1-.7c-.3-.57-.39-5.37-.36-18.94l0-12,.55-.38C375.61,144.19,376.05,144.19,376.38,144.63Z" transform="translate(-267.23 -83.73)"/><path d="M356.74,137.46c-.89.12-3.35.46-5.44.78l-3.88.56s-.07,9.74-.07,21.63v21.64l4.68.65c5.31.74,6.63.9,6.73.8s.06-45.18-.06-45.72a1.09,1.09,0,0,0-.21-.53C358.42,137.26,357.64,137.35,356.74,137.46Z" transform="translate(-267.23 -83.73)"/><path d="M343.93,139.3c-4.43.63-21,3.07-21.29,3.16a.45.45,0,0,0-.31.29c0,.13-.1,1.95-.14,4l-.07,3.79.38-.06c.22,0,1.27-.15,2.34-.24l2.56-.23L328,150v10.17c0,11.59.11,18.9.27,19.06s9.79,1.52,10.86,1.6l.45,0,.09-.5c0-.28.11-7.42.15-15.86s.1-15.42.14-15.48a10.61,10.61,0,0,1,2.2-.35c3.21-.32,3.18-.32,3.31-.64.05-.14.1-2.2.1-4.58v-4.3h-.31C345.08,139.16,344.49,139.22,343.93,139.3Z" transform="translate(-267.23 -83.73)"/><path d="M313.07,143.77a4.43,4.43,0,0,1-.82.11l-1,.12c-.09,0-1.9.31-4,.62s-4.13.64-4.46.7l-.62.14-.2.67c-.11.37-.66,2.49-1.22,4.7-1.74,6.91-4.41,17-5.66,21.26-.33,1.16-.6,2.12-.6,2.13a37.1,37.1,0,0,0,6.05,1.07c1.82.25,4.43.57,4.72.57s.49-.51,1-3c.26-1.3.5-2.38.54-2.42a22.28,22.28,0,0,1,3.35.17c.29.1.33.21.93,3a15.4,15.4,0,0,0,.77,3.11,91,91,0,0,0,10.51,1.48c.13-.13,0-.9-.61-3.86-.33-1.63-.78-3.8-1-4.82-1.15-5.57-5.13-23.48-5.65-25.4l-.13-.47h-.93A6.38,6.38,0,0,0,313.07,143.77Zm-4,18.88c.15,1.35.05,1.66-.53,1.68-.43,0-.52-.35-.37-1.48a7.78,7.78,0,0,1,.29-1.42l.17-.41.17.29A7.75,7.75,0,0,1,309.06,162.65Z" transform="translate(-267.23 -83.73)"/><path d="M291.36,147c-1.45.14-8.42,1.15-8.57,1.25a14.34,14.34,0,0,0-.2,3.18c0,1.71-.1,3.33-.14,3.6l-.07.48-.28-.25c-.15-.15-.86-1-1.57-1.79a36,36,0,0,0-4.09-4.41c-.08,0-.84.15-1.7.27-3.47.48-6.16.91-6.24,1s-.08,4.64-.07,10.21l0,10.12,2.91.43c4.87.69,7,1,7.1.91s.09-1.66.13-3.63a32.52,32.52,0,0,1,.19-3.71c.07-.07.25.09.49.44.63.85,2.77,4.09,3.68,5.57,1.08,1.77,1.39,2.15,1.82,2.29a74.12,74.12,0,0,0,7.51,1,31.64,31.64,0,0,0,.2-3.89c.11-5,.12-23.21,0-23.2S292,146.94,291.36,147Z" transform="translate(-267.23 -83.73)"/></svg>