<?xml version="1.0" encoding="iso-8859-1"?>
<!-- Generator: Adobe Illustrator 19.0.0, SVG Export Plug-In . SVG Version: 6.00 Build 0)  -->
<svg xmlns="http://www.w3.org/2000/svg" xmlns:xlink="http://www.w3.org/1999/xlink" version="1.1" id="Layer_1" x="0px" y="0px" viewBox="0 0 512 512" style="enable-background:new 0 0 512 512;" xml:space="preserve" width="512px" height="512px">
<g>
	<g>
		<circle cx="357.68" cy="389.17" r="14.833" fill="#cc2b2c"/>
	</g>
</g>
<g>
	<g>
		<path d="M439.913,113.262H258.28V37.669l-36.432-18.52C197.206,6.622,169.564,0,141.91,0c-13.83,0-27.656,1.633-41.093,4.852    C87.38,8.069,74.314,12.879,61.986,19.147L24.49,38.195v436.136l36.435,18.521C85.575,505.379,113.219,512,140.87,512    c13.83,0,27.656-1.633,41.095-4.853c13.446-3.222,26.511-8.031,38.831-14.294l37.484-19.049V425.89h6.772    c13.025,26.686,40.14,43.959,70.538,43.959c43.301,0,78.529-35.228,78.529-78.529c0-43.301-35.228-78.529-78.529-78.529    c-30.398,0-57.513,17.273-70.538,43.959h-6.772V208.455h181.633c26.245,0,47.597-21.352,47.597-47.597    S466.158,113.262,439.913,113.262z M228.28,455.397l-21.078,10.712c-10.226,5.199-21.068,9.19-32.228,11.864    C163.822,480.645,152.348,482,140.87,482c-22.95,0-45.895-5.496-66.353-15.892l-20.027-10.18V56.604l21.088-10.713    c10.234-5.203,21.076-9.194,32.227-11.864C118.957,31.355,130.432,30,141.91,30c22.952,0,45.893,5.495,66.343,15.892l20.027,10.18    v57.19h-36.135C178.795,99.667,160.675,92,141.385,92c-39.288,0-71.25,31.962-71.25,71.25c0,39.288,31.962,71.25,71.25,71.25    c21.576,0,41.602-9.599,55.066-26.045h31.829V356.75h-73.437v-14.609h-30v14.609h-0.333v69.141h0.333v13.776h30V425.89h73.437    V455.397z M286.05,386.749L286.05,386.749l3.359-10.382c6.497-20.082,25.055-33.576,46.181-33.576    c26.759,0,48.529,21.77,48.529,48.529c0,26.759-21.77,48.529-48.529,48.529c-21.125,0-39.684-13.493-46.181-33.576l-3.359-10.383    H154.843v-9.141H286.05z M439.913,178.455h-259.31l-4.423,6.932c-7.636,11.968-20.643,19.113-34.796,19.113    c-22.745,0-41.25-18.505-41.25-41.25S118.64,122,141.385,122c12.631,0,24.4,5.687,32.29,15.602l4.504,5.66h261.734    c9.703,0,17.597,7.894,17.597,17.597C457.51,170.561,449.616,178.455,439.913,178.455z" fill="#cc2b2c"/>
	</g>
</g>
<g>
</g>
<g>
</g>
<g>
</g>
<g>
</g>
<g>
</g>
<g>
</g>
<g>
</g>
<g>
</g>
<g>
</g>
<g>
</g>
<g>
</g>
<g>
</g>
<g>
</g>
<g>
</g>
<g>
</g>
</svg>
